HIERARCHY
ROOT joint_Root
{
	OFFSET 0.0 0.0 0.0
	CHANNELS 6 Xposition Yposition Zposition Zrotation Xrotation Yrotation 
	JOINT Hips
	{
		OFFSET 4.5925 91.4895 -427.239
		CHANNELS 6 Xposition Yposition Zposition Zrotation Xrotation Yrotation 
		JOINT Spine
		{
			OFFSET 15.7357 0.0 0.0
			CHANNELS 6 Xposition Yposition Zposition Zrotation Xrotation Yrotation 
			JOINT Chest
			{
				OFFSET 8.98455 -0.406207 0.0
				CHANNELS 6 Xposition Yposition Zposition Zrotation Xrotation Yrotation 
				JOINT Neck
				{
					OFFSET 16.3773 0.0 0.0
					CHANNELS 6 Xposition Yposition Zposition Zrotation Xrotation Yrotation 
					JOINT Head
					{
						OFFSET 6.45672 0.0 0.0
						CHANNELS 6 Xposition Yposition Zposition Zrotation Xrotation Yrotation 
						End Site
						{
							OFFSET 0.0 0.0 0.0
						}
					}
				}
				JOINT Shoulder_L
				{
					OFFSET 12.9942 -0.242716 4.98039
					CHANNELS 6 Xposition Yposition Zposition Zrotation Xrotation Yrotation 
					JOINT UpperArm_L
					{
						OFFSET 5.34809 0.0 0.0
						CHANNELS 6 Xposition Yposition Zposition Zrotation Xrotation Yrotation 
						JOINT LowerArm_L
						{
							OFFSET 24.3286 1.87007e-05 0.0
							CHANNELS 6 Xposition Yposition Zposition Zrotation Xrotation Yrotation 
							JOINT Hand_L
							{
								OFFSET 22.2916 0.0 0.0
								CHANNELS 6 Xposition Yposition Zposition Zrotation Xrotation Yrotation 
								End Site
								{
									OFFSET 0.0 0.0 0.0
								}
							}
						}
					}
				}
				JOINT Shoulder_R
				{
					OFFSET 12.9945 -0.242716 -4.98039
					CHANNELS 6 Xposition Yposition Zposition Zrotation Xrotation Yrotation 
					JOINT UpperArm_R
					{
						OFFSET -5.34813 0.0 0.0
						CHANNELS 6 Xposition Yposition Zposition Zrotation Xrotation Yrotation 
						JOINT LowerArm_R
						{
							OFFSET -24.3289 0.000322201 0.0
							CHANNELS 6 Xposition Yposition Zposition Zrotation Xrotation Yrotation 
							JOINT Hand_R
							{
								OFFSET -22.2915 -0.000108084 0.0
								CHANNELS 6 Xposition Yposition Zposition Zrotation Xrotation Yrotation 
								End Site
								{
									OFFSET 0.0 0.0 0.0
								}
							}
						}
					}
				}
			}
		}
		JOINT UpperLeg_L
		{
			OFFSET -2.19248 -6.46944 0.0
			CHANNELS 6 Xposition Yposition Zposition Zrotation Xrotation Yrotation 
			JOINT LowerLeg_L
			{
				OFFSET 39.0811 0.0 -1.23785e-05
				CHANNELS 6 Xposition Yposition Zposition Zrotation Xrotation Yrotation 
				JOINT Foot_L
				{
					OFFSET 40.9854 0.0 -1.26872e-05
					CHANNELS 6 Xposition Yposition Zposition Zrotation Xrotation Yrotation 
					JOINT Toes_L
					{
						OFFSET 11.7543 0.0 0.0
						CHANNELS 6 Xposition Yposition Zposition Zrotation Xrotation Yrotation 
						End Site
						{
							OFFSET 0.0 0.0 0.0
						}
					}
				}
			}
		}
		JOINT UpperLeg_R
		{
			OFFSET -2.19251 6.46944 0.0
			CHANNELS 6 Xposition Yposition Zposition Zrotation Xrotation Yrotation 
			JOINT LowerLeg_R
			{
				OFFSET -39.0811 -0.00228153 -0.0401928
				CHANNELS 6 Xposition Yposition Zposition Zrotation Xrotation Yrotation 
				JOINT Foot_R
				{
					OFFSET -40.9854 0.0 0.0
					CHANNELS 6 Xposition Yposition Zposition Zrotation Xrotation Yrotation 
					JOINT Toes_R
					{
						OFFSET -11.7543 0.0 0.0
						CHANNELS 6 Xposition Yposition Zposition Zrotation Xrotation Yrotation 
						End Site
						{
							OFFSET 0.0 0.0 0.0
						}
					}
				}
			}
		}
	}
}
MOTION
Frames:	6
Frame Time:	0.0333333
0.000000 0.000000 0.000000 0.000000 0.000000 -0.000000 -0.996721 90.205500 -2.486120 89.308300 -2.595140 11.179400 15.735700 0.000005 -0.000001 87.441600 77.033300 -87.530000 8.984550 -0.406207 -0.000000 18.143200 -1.143990 0.005511 16.377300 -0.000001 -0.000001 1.397990 -2.662080 1.820590 6.456720 -0.000001 -0.000000 -7.416150 -1.083280 1.014260 12.994200 -0.242716 4.980390 -91.240600 6.045000 -78.379900 5.348090 -0.000007 -0.000001 -48.803900 43.891200 -35.010400 24.328600 0.000019 0.000005 6.107030 16.230600 -20.946600 22.291600 -0.000001 0.000005 10.370900 5.248340 1.476440 12.994500 -0.242716 -4.980390 89.281800 11.096300 -86.273400 -5.348130 -0.000001 -0.000004 -57.466300 30.884200 -24.653700 -24.328900 0.000322 -0.000009 2.368830 5.236290 -24.393300 -22.291500 -0.000108 -0.000004 15.989500 5.391250 -2.655220 -2.192480 -6.469440 -0.000000 -174.087000 -10.997700 -2.482530 39.081100 -0.000007 -0.000012 -0.205954 0.298980 34.561600 40.985400 -0.000006 -0.000013 -0.533013 4.140280 -70.587300 11.754300 -0.000000 0.000003 -0.000124 -0.001233 -16.624700 -2.192510 6.469440 -0.000001 175.167000 18.749300 178.605000 -39.081100 -0.002282 -0.040193 -0.080205 0.122797 34.214500 -40.985400 0.000008 0.000006 5.957990 11.682100 -71.987300 -11.754300 -0.000006 -0.000006 -0.002566 -0.035595 -18.020600
0.000000 0.000000 0.000000 0.000000 0.000000 -0.000000 -0.984074 90.208500 -2.501950 89.299300 -2.618060 11.175800 15.735700 0.000005 -0.000001 87.437100 77.018600 -87.526100 8.984550 -0.406207 -0.000000 18.172500 -1.147330 0.004937 16.377300 -0.000001 -0.000001 1.461630 -2.630470 1.760420 6.456720 -0.000001 -0.000000 -7.398360 -1.083700 1.027300 12.994200 -0.242716 4.980390 -91.238900 6.033740 -78.374200 5.348090 -0.000007 -0.000001 -48.786200 43.906800 -35.041400 24.328600 0.000019 0.000005 6.079180 16.158000 -20.941900 22.291600 -0.000001 0.000005 10.323800 5.247010 1.511630 12.994500 -0.242716 -4.980390 89.258500 11.116600 -86.159700 -5.348130 -0.000001 -0.000004 -57.634300 30.130100 -24.515800 -24.328900 0.000322 -0.000009 2.496200 5.258880 -25.447500 -22.291500 -0.000108 -0.000004 16.130200 5.394690 -2.765570 -2.192480 -6.469440 -0.000000 -174.080000 -11.010600 -2.482700 39.081100 -0.000007 -0.000012 -0.205942 0.299049 34.553900 40.985400 -0.000006 -0.000013 -0.525320 4.148720 -70.582500 11.754300 -0.000000 0.000003 -0.000136 -0.001333 -16.628400 -2.192510 6.469440 -0.000001 175.198000 18.714200 178.580000 -39.081100 -0.002282 -0.040193 -0.075117 0.115314 34.214600 -40.985400 0.000008 0.000006 6.034380 11.641800 -71.987100 -11.754300 -0.000006 -0.000006 -0.002419 -0.033847 -17.949500
0.000000 0.000000 0.000000 0.000000 0.000000 -0.000000 -0.969404 90.204100 -2.505990 89.281500 -2.635390 11.190800 15.735700 0.000005 -0.000001 87.366500 77.000200 -87.459500 8.984550 -0.406207 -0.000000 18.207900 -1.180620 0.002928 16.377300 -0.000001 -0.000001 1.503970 -2.597780 1.751920 6.456720 -0.000001 -0.000000 -7.321200 -1.008680 1.013150 12.994200 -0.242716 4.980390 -91.244700 6.030860 -78.316000 5.348090 -0.000007 -0.000001 -48.792100 43.888100 -35.032000 24.328600 0.000019 0.000005 6.105600 16.217500 -20.957000 22.291600 -0.000001 0.000005 10.334100 5.250170 1.428130 12.994500 -0.242716 -4.980390 89.233900 11.138500 -86.040300 -5.348130 -0.000001 -0.000004 -57.670100 29.416500 -24.407900 -24.328900 0.000322 -0.000009 2.380070 4.710040 -26.858500 -22.291500 -0.000108 -0.000004 16.401600 5.395350 -2.787100 -2.192480 -6.469440 -0.000000 -174.088000 -10.972100 -2.487050 39.081100 -0.000007 -0.000012 -0.204039 0.295894 34.589200 40.985400 -0.000006 -0.000013 -0.532315 4.070350 -70.601800 11.754300 -0.000000 0.000003 -0.000135 -0.001326 -16.628100 -2.192510 6.469440 -0.000001 175.183000 18.763300 178.590000 -39.081100 -0.002282 -0.040193 -0.078837 0.120760 34.219800 -40.985400 0.000008 0.000006 5.969730 11.696700 -71.966400 -11.754300 -0.000006 -0.000006 -0.002586 -0.035822 -18.029800
0.000000 0.000000 0.000000 0.000000 0.000000 -0.000000 -0.956069 90.211400 -2.521640 89.279100 -2.675150 11.201100 15.735700 0.000005 -0.000001 87.356600 76.991900 -87.455000 8.984550 -0.406207 -0.000000 18.224200 -1.186220 -0.006828 16.377300 -0.000001 -0.000001 1.586340 -2.554870 1.720260 6.456720 -0.000001 -0.000000 -7.298960 -0.974243 1.041210 12.994200 -0.242716 4.980390 -91.249100 6.050010 -78.312000 5.348090 -0.000007 -0.000001 -48.866400 43.819000 -34.899700 24.328600 0.000019 0.000005 6.166470 16.290900 -21.064400 22.291600 -0.000001 0.000005 10.383800 5.247110 1.508960 12.994500 -0.242716 -4.980390 89.204200 11.110500 -85.877400 -5.348130 -0.000001 -0.000004 -57.818800 28.478400 -24.293600 -24.328900 0.000322 -0.000009 2.421130 4.460580 -28.542200 -22.291500 -0.000108 -0.000004 16.420700 5.395540 -2.792980 -2.192480 -6.469440 -0.000000 -174.081000 -11.010100 -2.470230 39.081100 -0.000007 -0.000012 -0.204582 0.296997 34.560800 40.985400 -0.000006 -0.000013 -0.519320 4.092530 -70.577800 11.754300 -0.000000 0.000003 -0.000132 -0.001300 -16.627100 -2.192510 6.469440 -0.000001 175.193000 18.727100 178.591000 -39.081100 -0.002282 -0.040193 -0.074570 0.114572 34.199800 -40.985400 0.000008 0.000006 6.043490 11.707800 -71.959000 -11.754300 -0.000006 -0.000006 -0.002556 -0.035467 -18.015400
0.000000 0.000000 0.000000 0.000000 0.000000 -0.000000 -0.928553 90.207100 -2.543700 89.274400 -2.746460 11.185100 15.735700 0.000005 -0.000001 87.321400 76.985500 -87.426500 8.984550 -0.406207 -0.000000 18.236300 -1.203110 -0.017569 16.377300 -0.000001 -0.000001 1.600430 -2.531660 1.711620 6.456720 -0.000001 -0.000000 -7.240700 -0.897415 1.022910 12.994200 -0.242716 4.980390 -91.257900 6.060110 -78.250300 5.348090 -0.000007 -0.000001 -48.759600 43.843500 -34.953400 24.328600 0.000019 0.000005 6.198300 16.351700 -21.094600 22.291600 -0.000001 0.000005 10.282700 5.243210 1.611420 12.994500 -0.242716 -4.980390 89.178500 11.056700 -85.724000 -5.348130 -0.000001 -0.000004 -57.790000 27.626900 -24.336700 -24.328900 0.000322 -0.000009 2.397440 4.077160 -30.503000 -22.291500 -0.000108 -0.000004 16.500300 5.401790 -2.995840 -2.192480 -6.469440 -0.000000 -174.095000 -11.053800 -2.507100 39.081100 -0.000007 -0.000012 -0.203459 0.295006 34.593500 40.985400 -0.000006 -0.000013 -0.507950 4.054910 -70.588400 11.754300 -0.000000 0.000003 -0.000134 -0.001320 -16.627900 -2.192510 6.469440 -0.000001 175.195000 18.662200 178.532000 -39.081100 -0.002282 -0.040193 -0.082464 0.126080 34.222500 -40.985400 0.000008 0.000006 5.986310 11.736500 -71.929900 -11.754300 -0.000006 -0.000006 -0.002299 -0.032404 -17.890800
0.000000 0.000000 0.000000 0.000000 0.000000 -0.000000 -0.913062 90.210400 -2.545440 89.280600 -2.774620 11.241300 15.735700 0.000005 -0.000001 87.230700 76.964200 -87.341300 8.984550 -0.406207 -0.000000 18.277100 -1.245960 -0.021238 16.377300 -0.000001 -0.000001 1.678950 -2.524870 1.725860 6.456720 -0.000001 -0.000000 -7.250140 -0.835105 0.975065 12.994200 -0.242716 4.980390 -91.258700 6.057350 -78.238500 5.348090 -0.000007 -0.000001 -48.783700 43.814700 -34.899500 24.328600 0.000019 0.000005 6.207270 16.395200 -21.072900 22.291600 -0.000001 0.000005 10.282300 5.242840 1.621250 12.994500 -0.242716 -4.980390 89.148000 11.012200 -85.548300 -5.348130 -0.000001 -0.000004 -57.698200 26.721300 -24.407500 -24.328900 0.000322 -0.000009 2.655450 4.125210 -32.822500 -22.291500 -0.000108 -0.000004 16.733200 5.405210 -3.107720 -2.192480 -6.469440 -0.000000 -174.099000 -11.094800 -2.432870 39.081100 -0.000007 -0.000012 -0.201749 0.292728 34.575200 40.985400 -0.000006 -0.000013 -0.492711 4.047420 -70.586500 11.754300 -0.000000 0.000003 -0.000132 -0.001302 -16.627200 -2.192510 6.469440 -0.000001 175.167000 18.646700 178.599000 -39.081100 -0.002282 -0.040193 -0.075787 0.116317 34.210600 -40.985400 0.000008 0.000006 6.000660 11.718600 -71.930000 -11.754300 -0.000006 -0.000006 -0.002563 -0.035550 -18.018700
